# xmcd
#
# Track frame offsets:
# 150
# 17479
# 33308
# 54564
# 72449
# 91239
# 107567
# 130495
# 149969
# 163883
# 177545
#
# Disc length: 2547 seconds
#
#
# Revision: 0
# Processed by: cddbd v1.5.2PL0 Copyright (c) Steve Scherf et al.
# Submitted via: FreeRIP 2.951 
#
DISCID=a209f10b
DTITLE=Desperado - Raspundem ascultatorilor
DYEAR=2007
DGENRE=Country
TTITLE0=Acceleratul 1932
TTITLE1=California
TTITLE2=Cel mai prost scenariu
TTITLE3=Johnny
TTITLE4=La Tat' Ni-i Greu
TTITLE5=Ma Intorc de unde am Pornit
TTITLE6=O femeie ca si a mea
TTITLE7=Omul simplu
TTITLE8=Unde-ai fost
TTITLE9=European - A Beautiful Sin
TTITLE10=Where Were You
EXTD=
EXTT0=
EXTT1=
EXTT2=
EXTT3=
EXTT4=
EXTT5=
EXTT6=
EXTT7=
EXTT8=
EXTT9=
EXTT10=
PLAYORDER=
